<svg xmlns="http://www.w3.org/2000/svg" width="32" height="32" viewBox="0 0 32 32">
  <defs>
    <linearGradient id="gradient" x1="0%" y1="0%" x2="100%" y2="100%">
      <stop offset="0%" stop-color="#1DB954" />
      <stop offset="100%" stop-color="#7856FF" />
    </linearGradient>
  </defs>
  <circle cx="16" cy="16" r="15" fill="url(#gradient)" />
  <path d="M24 14c0 .552-.448 1-1 1s-1-.448-1-1c0-3.314-2.686-6-6-6a1 1 0 0 1 0-2c4.418 0 8 3.582 8 8z" fill="#fff"/>
  <path d="M20 14a1 1 0 1 1-2 0 2 2 0 0 0-2-2 1 1 0 0 1 0-2 4 4 0 0 1 4 4z" fill="#fff"/>
  <circle cx="16" cy="14" r="1" fill="#fff"/>
  <path d="M8 20a.8.8 0 0 1 .8-.8h14.4a.8.8 0 0 1 .8.8v4a4 4 0 0 1-4 4h-8a4 4 0 0 1-4-4v-4z" fill="#fff"/>
  <rect x="11.2" y="20" width="1.6" height="4.8" rx=".8" fill="url(#gradient)"/>
  <rect x="15.2" y="20" width="1.6" height="6.4" rx=".8" fill="url(#gradient)"/>
  <rect x="19.2" y="20" width="1.6" height="3.2" rx=".8" fill="url(#gradient)"/>
</svg>
