<svg xmlns="http://www.w3.org/2000/svg" width="40" height="40" viewBox="0 0 40 40">
  <defs>
    <linearGradient id="gradient" x1="0%" y1="0%" x2="100%" y2="100%">
      <stop offset="0%" stop-color="#1DB954" />
      <stop offset="100%" stop-color="#7856FF" />
    </linearGradient>
  </defs>
  <circle cx="20" cy="20" r="18" fill="url(#gradient)" />
  <path d="M30 17.5c0 .69-.56 1.25-1.25 1.25a1.25 1.25 0 0 1-1.25-1.25c0-4.14-3.36-7.5-7.5-7.5a1.25 1.25 0 0 1 0-2.5c5.52 0 10 4.48 10 10z" fill="#fff"/>
  <path d="M25 17.5a1.25 1.25 0 1 1-2.5 0 2.5 2.5 0 0 0-2.5-2.5 1.25 1.25 0 0 1 0-2.5 5 5 0 0 1 5 5z" fill="#fff"/>
  <circle cx="20" cy="17.5" r="1.25" fill="#fff"/>
  <path d="M10 25a1 1 0 0 1 1-1h18a1 1 0 0 1 1 1v5a5 5 0 0 1-5 5H15a5 5 0 0 1-5-5v-5z" fill="#fff"/>
  <rect x="14" y="25" width="2" height="6" rx="1" fill="url(#gradient)"/>
  <rect x="19" y="25" width="2" height="8" rx="1" fill="url(#gradient)"/>
  <rect x="24" y="25" width="2" height="4" rx="1" fill="url(#gradient)"/>
</svg>
